<?xml version="1.0" encoding="UTF-8" standalone="no"?>
<!DOCTYPE svg PUBLIC "-//W3C//DTD SVG 1.1//EN" "http://www.w3.org/Graphics/SVG/1.1/DTD/svg11.dtd">
<svg width="100%" height="100%" viewBox="0 0 1267 956" version="1.1" xmlns="http://www.w3.org/2000/svg" xmlns:xlink="http://www.w3.org/1999/xlink" xml:space="preserve" xmlns:serif="http://www.serif.com/" style="fill-rule:evenodd;clip-rule:evenodd;stroke-linejoin:round;stroke-miterlimit:2;">
    <g transform="matrix(1,0,0,1,-181298.233822,-63274.425512)">
        <g transform="matrix(8.333333,0,0,8.333333,179510.617156,52665.125512)">
            <g transform="matrix(1,0,0,-1,0,-413.332)">
                <path d="M344.84,-1686.812C343.301,-1687.096 341.777,-1687.537 340.263,-1688.109C333.769,-1690.568 327.448,-1695.436 320.573,-1700.569C313.48,-1705.872 305.796,-1711.458 296.728,-1714.971C297.068,-1715.67 297.308,-1716.334 297.48,-1716.955C297.611,-1717.398 297.694,-1717.821 297.761,-1718.217C297.867,-1718.834 297.914,-1719.397 297.945,-1719.904C297.977,-1720.389 297.992,-1720.825 298.034,-1721.204C307.951,-1724.944 317.515,-1724.273 326.68,-1722.231C335.565,-1720.254 344.083,-1716.989 352.191,-1715.195C354.074,-1714.779 355.944,-1714.438 357.786,-1714.214C360.756,-1713.854 363.664,-1713.794 366.513,-1714.172C366.394,-1712.402 365.919,-1710.262 365.126,-1707.893C364.29,-1705.431 363.116,-1702.722 361.612,-1699.921C360.646,-1698.111 359.546,-1696.26 358.313,-1694.41C356.596,-1691.826 354.639,-1689.242 352.456,-1686.78C351.207,-1686.555 349.974,-1686.448 348.758,-1686.448C347.434,-1686.448 346.13,-1686.574 344.84,-1686.812Z" style="fill-rule:nonzero;"/>
            </g>
        </g>
        <g transform="matrix(8.333333,0,0,8.333333,179510.617156,52665.125512)">
            <g transform="matrix(1,0,0,-1,0,-306.288)">
                <path d="M256.117,-1624.657C242.436,-1634.264 229.971,-1646.263 216.905,-1657.423C216.555,-1664.198 216.399,-1669.517 216.352,-1674.664C216.331,-1677.117 216.336,-1679.528 216.352,-1682.045C216.373,-1684.222 216.399,-1686.479 216.435,-1688.904C216.462,-1690.535 216.488,-1692.239 216.514,-1694.051C231.244,-1675.473 248.475,-1661.776 263.931,-1647.27C273.521,-1638.265 282.425,-1628.953 289.629,-1617.965C289.165,-1617.521 288.732,-1617.098 288.329,-1616.686C287.74,-1616.075 287.212,-1615.496 286.737,-1614.951C286.195,-1614.319 285.725,-1613.732 285.323,-1613.183C284.467,-1612.035 283.883,-1611.077 283.433,-1610.297C273.568,-1613.648 264.605,-1618.693 256.117,-1624.657Z" style="fill-rule:nonzero;"/>
            </g>
        </g>
        <g transform="matrix(8.333333,0,0,8.333333,179510.617156,52665.125512)">
            <g transform="matrix(1,0,0,-1,0,-307.317)">
                <path d="M295.977,-1611.837C295.747,-1612.417 295.492,-1613.119 295.225,-1613.867C294.97,-1614.609 294.698,-1615.402 294.431,-1616.175C293.691,-1618.321 292.97,-1620.32 292.563,-1620.733C299.083,-1629.468 307.534,-1637.893 317.07,-1646.942C331.378,-1660.524 348.15,-1675.513 364.52,-1695.08C364.52,-1688.738 364.567,-1683.906 364.536,-1679.029C364.525,-1677.274 364.499,-1675.51 364.468,-1673.668C364.431,-1671.809 364.379,-1669.878 364.301,-1667.785C364.202,-1664.974 364.066,-1661.886 363.867,-1658.342C350.499,-1647.447 340.164,-1636.988 327.338,-1627.564C318.794,-1621.285 309.137,-1615.47 296.728,-1610.297C296.546,-1610.485 296.279,-1611.055 295.977,-1611.837Z" style="fill-rule:nonzero;"/>
            </g>
        </g>
        <g transform="matrix(8.333333,0,0,8.333333,179510.617156,52665.125512)">
            <g transform="matrix(1,0,0,-1,0,-412.719)">
                <path d="M228.644,-1686.893C225.053,-1690.576 222.255,-1694.496 220.115,-1698.249C218.696,-1700.737 217.568,-1703.151 216.68,-1705.38C216.143,-1706.745 215.694,-1708.042 215.329,-1709.237C214.985,-1710.359 214.717,-1711.398 214.514,-1712.33C217.156,-1712.317 219.682,-1712.453 222.115,-1712.698C225.878,-1713.079 229.417,-1713.726 232.836,-1714.515C241,-1716.396 250.141,-1720.93 258.247,-1722.725C265.983,-1724.437 275.509,-1722.491 285.548,-1721.107C285.385,-1720.701 285.323,-1720.533 285.224,-1720.21C285.119,-1719.849 285.115,-1719.685 284.952,-1719.286C284.603,-1718.414 284.597,-1718.291 284.874,-1717.631C285.286,-1716.629 285.151,-1716.289 285.385,-1715.804C276.366,-1712.317 268.305,-1707.001 261.03,-1701.841C253.398,-1696.433 246.627,-1691.197 240.494,-1688.409C237.926,-1687.24 235.467,-1686.504 233.108,-1686.366C232.836,-1686.35 232.566,-1686.342 232.296,-1686.342C231.054,-1686.342 229.837,-1686.518 228.644,-1686.893Z" style="fill-rule:nonzero;"/>
            </g>
        </g>
        <g transform="matrix(8.333333,0,0,8.333333,179510.617156,52665.125512)">
            <g transform="matrix(1,0,0,-1,0,-381.809)">
                <path d="M282.525,-1683.73C282.525,-1684.33 282.588,-1684.894 282.692,-1685.437C282.854,-1686.235 283.115,-1686.972 283.439,-1687.671C283.726,-1688.303 284.06,-1688.903 284.409,-1689.498C285.741,-1691.758 287.291,-1693.893 287.291,-1696.927C290.12,-1696.783 292.338,-1696.203 293.894,-1696.927C293.894,-1693.893 295.22,-1691.502 296.358,-1689.023C296.655,-1688.37 296.942,-1687.712 297.188,-1687.034C297.464,-1686.282 297.689,-1685.499 297.824,-1684.675C297.918,-1684.119 297.971,-1683.542 297.971,-1682.942C292.61,-1682.942 288.977,-1685.468 282.525,-1683.73Z" style="fill-rule:nonzero;"/>
            </g>
        </g>
    </g>
</svg>
