<?xml version="1.0" encoding="UTF-8" standalone="no"?>
<!DOCTYPE svg PUBLIC "-//W3C//DTD SVG 1.1//EN" "http://www.w3.org/Graphics/SVG/1.1/DTD/svg11.dtd">
<svg width="100%" height="100%" viewBox="0 0 272 345" version="1.1" xmlns="http://www.w3.org/2000/svg" xmlns:xlink="http://www.w3.org/1999/xlink" xml:space="preserve" xmlns:serif="http://www.serif.com/" style="fill-rule:evenodd;clip-rule:evenodd;stroke-linejoin:round;stroke-miterlimit:2;">
    <g transform="matrix(1,0,0,1,-121245.321077,-64653.306398)">
        <g transform="matrix(8.333333,0,0,8.333333,108763.692744,53287.214731)">
            <g transform="matrix(1,0,0,1,1513.7871,1379.22)">
                <path d="M0,-12.433C-3.428,-12.433 -6.217,-9.644 -6.217,-6.216C-6.217,-2.788 -3.428,0 0,0C3.428,0 6.216,-2.788 6.216,-6.216C6.216,-9.644 3.428,-12.433 0,-12.433M0,2.856C-5.003,2.856 -9.073,-1.214 -9.073,-6.216C-9.073,-11.219 -5.003,-15.289 0,-15.289C5.002,-15.289 9.072,-11.219 9.072,-6.216C9.072,-1.214 5.002,2.856 0,2.856" style="fill:rgb(255,108,0);fill-rule:nonzero;"/>
            </g>
        </g>
        <g transform="matrix(8.333333,0,0,8.333333,108763.692744,53287.214731)">
            <g transform="matrix(1,0,0,1,1514.0614,1402.4311)">
                <path d="M0,-15.895C-7.395,-15.895 -13.41,-9.879 -13.41,-2.486C-13.41,-1.115 -12.295,-0 -10.924,-0L10.925,-0C12.295,-0 13.41,-1.115 13.41,-2.486C13.41,-9.879 7.395,-15.895 0,-15.895M10.925,2.856L-10.924,2.856C-13.87,2.856 -16.266,0.46 -16.266,-2.486C-16.266,-11.455 -8.969,-18.751 0,-18.751C8.969,-18.751 16.266,-11.455 16.266,-2.486C16.266,0.46 13.87,2.856 10.925,2.856" style="fill:rgb(255,108,0);fill-rule:nonzero;"/>
            </g>
        </g>
    </g>
</svg>
