<?xml version="1.0" encoding="UTF-8" standalone="no"?>
<!DOCTYPE svg PUBLIC "-//W3C//DTD SVG 1.1//EN" "http://www.w3.org/Graphics/SVG/1.1/DTD/svg11.dtd">
<svg width="100%" height="100%" viewBox="0 0 143 143" version="1.1" xmlns="http://www.w3.org/2000/svg" xmlns:xlink="http://www.w3.org/1999/xlink" xml:space="preserve" xmlns:serif="http://www.serif.com/" style="fill-rule:evenodd;clip-rule:evenodd;stroke-linejoin:round;stroke-miterlimit:2;">
    <g transform="matrix(1,0,0,1,-143056.379775,-62212.392066)">
        <g transform="matrix(8.333333,0,0,8.333333,130221.83455,52649.150512)">
            <g transform="matrix(1,0,0,1,1550.4662,1159.925)">
                <path d="M0,-7.583C0.182,-7.583 0.268,-7.701 0.349,-7.823C0.76,-8.445 1.171,-9.067 1.581,-9.69C1.769,-9.976 1.957,-10.263 2.146,-10.55C2.219,-10.66 2.238,-10.764 2.132,-10.869C1.925,-11.073 1.72,-11.278 1.517,-11.486C1.45,-11.556 1.401,-11.551 1.343,-11.476C1.234,-11.335 1.12,-11.198 1.008,-11.059C0.319,-10.208 -0.37,-9.357 -1.058,-8.506C-1.208,-8.32 -1.208,-8.319 -1.001,-8.184C-0.731,-8.008 -0.459,-7.833 -0.188,-7.656C-0.127,-7.616 -0.066,-7.578 0,-7.583M-3.422,-7.583C-3.401,-7.589 -3.345,-7.595 -3.303,-7.622C-2.975,-7.831 -2.65,-8.045 -2.322,-8.255C-2.231,-8.313 -2.257,-8.364 -2.313,-8.429C-2.483,-8.63 -2.651,-8.834 -2.819,-9.038C-3.479,-9.836 -4.141,-10.632 -4.797,-11.434C-4.894,-11.554 -4.953,-11.554 -5.056,-11.443C-5.253,-11.231 -5.462,-11.029 -5.67,-10.827C-5.738,-10.761 -5.753,-10.713 -5.694,-10.627C-5.037,-9.67 -4.385,-8.709 -3.731,-7.75C-3.664,-7.652 -3.577,-7.587 -3.422,-7.583M0.718,-11.691C0.672,-11.709 0.66,-11.718 0.649,-11.718C-0.902,-11.719 -2.452,-11.72 -4.002,-11.72C-4.04,-11.72 -4.09,-11.734 -4.111,-11.695C-4.14,-11.641 -4.085,-11.612 -4.058,-11.579C-3.327,-10.695 -2.592,-9.813 -1.864,-8.927C-1.766,-8.808 -1.713,-8.827 -1.623,-8.932C-1.178,-9.463 -0.726,-9.987 -0.277,-10.515C0.051,-10.901 0.378,-11.288 0.718,-11.691M-1.398,-7.627C-1.41,-7.565 -1.415,-7.552 -1.415,-7.539C-1.416,-3.725 -1.415,0.09 -1.419,3.905C-1.419,4.056 -1.362,4.094 -1.22,4.094C0.06,4.09 1.34,4.094 2.621,4.09C2.981,4.089 3.272,3.94 3.471,3.632C3.598,3.436 3.626,3.216 3.625,2.988C3.624,0.15 3.625,-2.688 3.625,-5.526C3.625,-5.598 3.622,-5.671 3.628,-5.743C3.646,-5.97 3.832,-6.095 4.048,-6.025C4.234,-5.965 4.289,-5.827 4.288,-5.641C4.284,-4.677 4.286,-3.714 4.286,-2.75C4.286,-2.698 4.287,-2.645 4.287,-2.592C4.287,-2.511 4.322,-2.481 4.399,-2.518C4.839,-2.728 5.308,-2.88 5.712,-3.161C5.978,-3.347 6.16,-3.586 6.16,-3.932C6.158,-5.12 6.167,-6.308 6.157,-7.496C6.148,-8.558 5.512,-9.375 4.496,-9.673C3.983,-9.824 3.457,-9.92 2.939,-10.052C2.638,-10.128 2.639,-10.127 2.464,-9.865C1.9,-9.019 1.353,-8.163 0.762,-7.335C0.469,-6.926 0.064,-6.812 -0.403,-6.999C-0.663,-7.104 -0.887,-7.268 -1.113,-7.428C-1.202,-7.491 -1.292,-7.552 -1.398,-7.627M-2.078,-1.775L-2.078,-1.953C-2.078,-3.781 -2.077,-5.609 -2.079,-7.437C-2.079,-7.492 -2.046,-7.568 -2.113,-7.598C-2.163,-7.621 -2.207,-7.564 -2.251,-7.537C-2.488,-7.393 -2.717,-7.237 -2.961,-7.107C-3.177,-6.991 -3.409,-6.918 -3.664,-6.955C-4.006,-7.004 -4.199,-7.236 -4.375,-7.502C-4.913,-8.317 -5.458,-9.128 -5.999,-9.941C-6.063,-10.037 -6.124,-10.128 -6.265,-10.095C-6.919,-9.942 -7.586,-9.832 -8.212,-9.576C-8.875,-9.305 -9.368,-8.869 -9.553,-8.147C-9.625,-7.865 -9.652,-7.576 -9.653,-7.285C-9.653,-6.242 -9.63,-5.199 -9.662,-4.157C-9.679,-3.592 -9.429,-3.244 -8.959,-3.011C-8.628,-2.847 -8.285,-2.707 -7.954,-2.544C-7.799,-2.468 -7.777,-2.521 -7.778,-2.664C-7.783,-3.172 -7.78,-3.68 -7.78,-4.188C-7.78,-4.69 -7.782,-5.191 -7.778,-5.693C-7.776,-5.935 -7.651,-6.055 -7.426,-6.044C-7.209,-6.033 -7.119,-5.913 -7.119,-5.627C-7.118,-2.749 -7.119,0.128 -7.118,3.006C-7.118,3.692 -6.721,4.091 -6.038,4.091C-4.804,4.093 -3.569,4.092 -2.335,4.092C-2.078,4.092 -2.078,4.091 -2.078,3.828L-2.078,-1.775M-1.754,4.753C-3.219,4.753 -4.683,4.754 -6.148,4.753C-7.109,4.751 -7.778,4.083 -7.779,3.122C-7.781,1.565 -7.783,0.007 -7.776,-1.55C-7.776,-1.721 -7.833,-1.809 -7.985,-1.881C-8.438,-2.096 -8.907,-2.276 -9.339,-2.534C-9.601,-2.691 -9.848,-2.865 -10.037,-3.109C-10.221,-3.347 -10.316,-3.612 -10.316,-3.915C-10.313,-5.103 -10.293,-6.291 -10.32,-7.478C-10.348,-8.691 -9.613,-9.729 -8.496,-10.222C-8.099,-10.398 -7.672,-10.448 -7.257,-10.553C-7.104,-10.592 -6.951,-10.633 -6.797,-10.669C-6.649,-10.703 -6.497,-10.718 -6.479,-10.925C-6.475,-10.979 -6.405,-11.031 -6.359,-11.077C-6.001,-11.437 -5.639,-11.794 -5.284,-12.156C-5.16,-12.283 -5.022,-12.337 -4.844,-12.336C-2.785,-12.333 -0.726,-12.333 1.332,-12.336C1.524,-12.337 1.672,-12.283 1.806,-12.143C2.131,-11.805 2.467,-11.478 2.798,-11.147C2.914,-11.031 3.042,-10.925 3.061,-10.742C3.07,-10.651 3.156,-10.647 3.227,-10.63C3.67,-10.528 4.114,-10.427 4.556,-10.322C5.937,-9.994 6.817,-8.882 6.82,-7.459C6.822,-6.298 6.81,-5.137 6.826,-3.976C6.833,-3.459 6.621,-3.076 6.235,-2.765C5.825,-2.433 5.349,-2.218 4.876,-2C4.288,-1.729 4.286,-1.733 4.286,-1.081C4.286,0.318 4.287,1.716 4.286,3.115C4.285,4.086 3.615,4.752 2.641,4.753C1.176,4.754 -0.289,4.753 -1.754,4.753" style="fill-rule:nonzero;"/>
            </g>
        </g>
    </g>
</svg>
