<?xml version="1.0" encoding="UTF-8" standalone="no"?>
<!DOCTYPE svg PUBLIC "-//W3C//DTD SVG 1.1//EN" "http://www.w3.org/Graphics/SVG/1.1/DTD/svg11.dtd">
<svg width="100%" height="100%" viewBox="0 0 71 150" version="1.1" xmlns="http://www.w3.org/2000/svg" xmlns:xlink="http://www.w3.org/1999/xlink" xml:space="preserve" xmlns:serif="http://www.serif.com/" style="fill-rule:evenodd;clip-rule:evenodd;stroke-linejoin:round;stroke-miterlimit:2;">
    <g transform="matrix(1,0,0,1,-141160.055784,-62214.55912)">
        <g transform="matrix(8.333333,0,0,8.333333,130221.83455,52649.150512)">
            <g transform="matrix(1,0,0,1,1313.2258,1165.2508)">
                <path d="M0,-16.918C-0.101,-16.776 -0.1,-16.645 -0.114,-16.519C-0.177,-15.946 -0.14,-15.371 -0.169,-14.797C-0.212,-13.928 -0.2,-13.059 -0.103,-12.197C-0.026,-11.514 0.304,-10.974 0.984,-10.716C1.138,-10.658 1.189,-10.558 1.181,-10.399C1.151,-9.767 1.144,-9.133 1.139,-8.5C1.129,-7.272 1.108,-6.045 1.091,-4.818C1.09,-4.778 1.088,-4.739 1.088,-4.7C1.063,-3.538 1.011,-2.377 1.031,-1.215C1.036,-0.865 1.072,-0.509 1.245,-0.189C1.326,-0.039 1.451,0.042 1.628,0.033C1.811,0.024 1.933,-0.071 2.003,-0.235C2.028,-0.295 2.047,-0.358 2.06,-0.422C2.11,-0.665 2.135,-0.913 2.135,-1.161C2.136,-1.859 2.142,-2.557 2.113,-3.256C2.067,-4.332 2.058,-5.41 2.013,-6.486C1.996,-6.89 1.989,-7.294 1.972,-7.699C1.934,-8.605 1.901,-9.512 1.866,-10.418C1.86,-10.576 1.93,-10.667 2.085,-10.719C2.459,-10.846 2.735,-11.094 2.932,-11.437C3.159,-11.83 3.221,-12.263 3.23,-12.701C3.255,-13.967 3.27,-15.234 3.194,-16.5C3.186,-16.64 3.184,-16.789 3.083,-16.914C3.029,-16.855 3.028,-16.794 3.018,-16.737C2.892,-16.008 2.907,-15.268 2.828,-14.535C2.795,-14.224 2.77,-13.91 2.634,-13.621C2.563,-13.47 2.449,-13.36 2.272,-13.365C2.097,-13.369 1.985,-13.478 1.919,-13.633C1.87,-13.748 1.838,-13.867 1.823,-13.992C1.751,-14.602 1.76,-15.216 1.744,-15.829C1.735,-16.155 1.72,-16.482 1.621,-16.797C1.606,-16.843 1.601,-16.916 1.538,-16.914C1.478,-16.913 1.47,-16.843 1.455,-16.794C1.413,-16.664 1.388,-16.53 1.375,-16.392C1.315,-15.761 1.321,-15.128 1.298,-14.495C1.288,-14.214 1.267,-13.935 1.17,-13.667C1.108,-13.495 0.999,-13.366 0.804,-13.362C0.62,-13.359 0.506,-13.474 0.433,-13.635C0.36,-13.797 0.321,-13.968 0.295,-14.143C0.201,-14.777 0.194,-15.417 0.139,-16.054C0.114,-16.334 0.111,-16.619 0,-16.918M0.769,-14.023C0.855,-14.606 0.879,-15.186 0.884,-15.766C0.887,-16.126 0.918,-16.483 1.001,-16.834C1.027,-16.943 1.064,-17.047 1.124,-17.143C1.337,-17.486 1.739,-17.488 1.949,-17.141C2.095,-16.9 2.127,-16.625 2.158,-16.352C2.207,-15.917 2.189,-15.478 2.207,-15.041C2.221,-14.692 2.217,-14.34 2.288,-13.939C2.372,-14.283 2.389,-14.582 2.414,-14.879C2.465,-15.497 2.467,-16.118 2.57,-16.731C2.59,-16.847 2.619,-16.962 2.656,-17.072C2.716,-17.25 2.822,-17.393 3.027,-17.4C3.238,-17.407 3.407,-17.316 3.507,-17.121C3.601,-16.938 3.632,-16.735 3.644,-16.534C3.719,-15.248 3.702,-13.961 3.678,-12.675C3.669,-12.211 3.596,-11.753 3.38,-11.328C3.176,-10.925 2.888,-10.606 2.481,-10.405C2.368,-10.35 2.311,-10.286 2.317,-10.152C2.355,-9.337 2.383,-8.521 2.421,-7.706C2.44,-7.309 2.443,-6.91 2.46,-6.512C2.505,-5.443 2.514,-4.371 2.559,-3.302C2.589,-2.609 2.592,-1.918 2.584,-1.225C2.58,-0.854 2.563,-0.48 2.432,-0.125C2.258,0.345 1.841,0.57 1.373,0.447C1.122,0.381 0.955,0.215 0.837,-0.008C0.627,-0.408 0.578,-0.847 0.58,-1.283C0.586,-2.458 0.62,-3.633 0.643,-4.808C0.644,-4.854 0.646,-4.9 0.646,-4.945C0.664,-6.48 0.68,-8.015 0.699,-9.55C0.702,-9.758 0.713,-9.967 0.726,-10.176C0.733,-10.288 0.692,-10.354 0.59,-10.407C-0.145,-10.791 -0.485,-11.443 -0.56,-12.231C-0.697,-13.684 -0.629,-15.14 -0.56,-16.594C-0.552,-16.769 -0.517,-16.945 -0.435,-17.105C-0.337,-17.297 -0.14,-17.418 0.056,-17.4C0.26,-17.38 0.363,-17.241 0.424,-17.065C0.55,-16.702 0.564,-16.323 0.593,-15.945C0.64,-15.334 0.652,-14.72 0.75,-14.113C0.754,-14.083 0.763,-14.053 0.769,-14.023" style="fill-rule:nonzero;"/>
            </g>
        </g>
        <g transform="matrix(8.333333,0,0,8.333333,130221.83455,52649.150512)">
            <g transform="matrix(1,0,0,1,1320.5946,1150.4539)">
                <path d="M0,12.801C-0.042,11.646 -0.083,10.492 -0.126,9.337C-0.164,8.293 -0.203,7.249 -0.243,6.206C-0.295,4.836 -0.351,3.466 -0.402,2.096C-0.435,1.235 -0.451,0.373 -0.496,-0.487C-0.513,-0.831 -0.494,-1.182 -0.577,-1.52C-0.618,-1.686 -0.627,-1.909 -0.824,-1.954C-1.034,-2.002 -1.142,-1.803 -1.242,-1.654C-1.482,-1.3 -1.638,-0.905 -1.76,-0.496C-2.071,0.548 -2.191,1.625 -2.305,2.702C-2.393,3.539 -2.466,4.378 -2.53,5.217C-2.56,5.626 -2.568,6.039 -2.502,6.448C-2.477,6.602 -2.431,6.713 -2.241,6.729C-2.007,6.749 -1.776,6.788 -1.541,6.805C-1.226,6.827 -1.164,6.896 -1.175,7.206C-1.2,7.963 -1.22,8.72 -1.263,9.476C-1.283,9.828 -1.283,10.181 -1.3,10.533C-1.345,11.491 -1.401,12.45 -1.4,13.409C-1.4,13.754 -1.368,14.101 -1.241,14.43C-1.167,14.623 -1.045,14.766 -0.833,14.815C-0.474,14.897 -0.195,14.7 -0.106,14.284C-0.001,13.795 -0.014,13.298 0,12.801M0.436,12.703C0.434,13.331 0.457,13.901 0.315,14.458C0.155,15.082 -0.353,15.393 -0.963,15.244C-1.326,15.156 -1.544,14.906 -1.662,14.566C-1.857,14.007 -1.862,13.426 -1.844,12.844C-1.831,12.413 -1.8,11.983 -1.784,11.553C-1.739,10.321 -1.698,9.088 -1.654,7.855C-1.649,7.705 -1.636,7.555 -1.625,7.406C-1.618,7.302 -1.658,7.252 -1.767,7.242C-1.949,7.226 -2.13,7.197 -2.311,7.171C-2.689,7.117 -2.822,7.003 -2.91,6.632C-3.021,6.163 -3.005,5.686 -2.977,5.21C-2.928,4.389 -2.847,3.571 -2.758,2.754C-2.624,1.522 -2.495,0.288 -2.093,-0.896C-1.971,-1.256 -1.815,-1.601 -1.602,-1.917C-1.541,-2.008 -1.47,-2.097 -1.389,-2.172C-0.94,-2.592 -0.46,-2.484 -0.228,-1.913C-0.136,-1.687 -0.093,-1.447 -0.079,-1.206C-0.046,-0.633 -0.023,-0.059 -0.002,0.515C0.056,2.041 0.105,3.567 0.168,5.093C0.21,6.117 0.25,7.141 0.286,8.165C0.327,9.306 0.373,10.447 0.406,11.589C0.418,11.98 0.427,12.372 0.436,12.703" style="fill-rule:nonzero;"/>
            </g>
        </g>
    </g>
</svg>
