<?xml version="1.0" encoding="UTF-8" standalone="no"?>
<!DOCTYPE svg PUBLIC "-//W3C//DTD SVG 1.1//EN" "http://www.w3.org/Graphics/SVG/1.1/DTD/svg11.dtd">
<svg width="100%" height="100%" viewBox="0 0 224 158" version="1.1" xmlns="http://www.w3.org/2000/svg" xmlns:xlink="http://www.w3.org/1999/xlink" xml:space="preserve" xmlns:serif="http://www.serif.com/" style="fill-rule:evenodd;clip-rule:evenodd;stroke-miterlimit:10;">
    <g transform="matrix(1,0,0,1,-143816.800129,-62223.241258)">
        <g transform="matrix(8.333333,0,0,8.333333,130221.83455,52649.150512)">
            <g transform="matrix(1,0,0,1,1644.8016,1162.6666)">
                <path d="M5.96,-8.655L-6,-8.655C-6.296,-8.655 -6.355,-8.6 -6.369,-8.329C-6.411,-7.492 -7.104,-6.792 -7.942,-6.74C-8.233,-6.722 -8.306,-6.645 -8.307,-6.352L-8.307,-2.311C-8.307,-2.003 -8.238,-1.933 -7.932,-1.917C-7.135,-1.877 -6.411,-1.152 -6.37,-0.355C-6.354,-0.049 -6.284,0.02 -5.975,0.02C-1.989,0.021 1.998,0.021 5.985,0.02C6.29,0.02 6.359,-0.049 6.375,-0.359C6.416,-1.146 7.137,-1.873 7.921,-1.916C8.254,-1.935 8.312,-1.997 8.312,-2.336L8.312,-6.316C8.312,-6.661 8.256,-6.718 7.903,-6.741C7.136,-6.791 6.423,-7.506 6.376,-8.274C6.354,-8.624 6.321,-8.655 5.96,-8.655ZM0,1.342C-2.868,1.342 -5.736,1.331 -8.604,1.35C-9.203,1.354 -9.641,0.943 -9.637,0.31C-9.618,-2.786 -9.618,-5.884 -9.637,-8.98C-9.641,-9.592 -9.196,-10.009 -8.609,-10.007C-2.866,-9.994 2.876,-9.999 8.619,-9.999C9.279,-9.999 9.633,-9.648 9.633,-8.995C9.634,-5.885 9.634,-2.775 9.633,0.336C9.633,0.998 9.288,1.342 8.624,1.342L0,1.342Z" style="fill:none;fill-rule:nonzero;stroke:black;stroke-width:0.75px;"/>
            </g>
        </g>
        <g transform="matrix(8.333333,0,0,8.333333,130221.83455,52649.150512)">
            <g transform="matrix(1,0.000848,0.000848,-1,1644.8005,1160.696097)">
                <ellipse cx="0.002" cy="2.357" rx="2.358" ry="2.359" style="fill:none;stroke:black;stroke-width:0.75px;"/>
            </g>
        </g>
    </g>
</svg>
