<?xml version="1.0" encoding="UTF-8" standalone="no"?>
<!DOCTYPE svg PUBLIC "-//W3C//DTD SVG 1.1//EN" "http://www.w3.org/Graphics/SVG/1.1/DTD/svg11.dtd">
<svg width="100%" height="100%" viewBox="0 0 208 208" version="1.1" xmlns="http://www.w3.org/2000/svg" xmlns:xlink="http://www.w3.org/1999/xlink" xml:space="preserve" xmlns:serif="http://www.serif.com/" style="fill-rule:evenodd;clip-rule:evenodd;stroke-linejoin:round;stroke-miterlimit:2;">
    <g transform="matrix(1,0,0,1,-140573.47705,-60570.246346)">
        <g transform="matrix(8.333333,0,0,8.333333,130221.83455,52649.150512)">
            <g transform="matrix(1,0,0,1,1264.1721,963.7575)">
                <path d="M0,-1.558L-6.612,-1.558L-6.612,10.207L-0.705,10.207C-0.391,10.207 0,9.817 0,9.502L0,-1.558ZM-12.446,-1.558L-19.058,-1.558L-19.058,9.502C-19.058,9.817 -18.667,10.207 -18.353,10.207L-12.446,10.207L-12.446,-1.558ZM-6.612,-3.016L0.754,-3.016C0.989,-3.016 1.313,-3.267 1.395,-3.493C1.499,-3.779 1.499,-5.17 1.395,-5.457C1.314,-5.682 0.99,-5.933 0.754,-5.933L-6.612,-5.933L-6.612,-3.016ZM-8.07,-5.933L-10.987,-5.933L-10.987,10.208L-8.07,10.208L-8.07,-5.933ZM-12.446,-5.933L-19.811,-5.933C-20.047,-5.933 -20.371,-5.683 -20.453,-5.457C-20.557,-5.171 -20.557,-3.78 -20.453,-3.493C-20.371,-3.268 -20.048,-3.016 -19.811,-3.016L-12.446,-3.016L-12.446,-5.933ZM-8.411,-7.392L-5.129,-7.392C-3.967,-7.392 -2.974,-8.453 -2.984,-9.596C-3.001,-11.554 -5.552,-12.552 -6.778,-10.985C-7.53,-10.024 -7.921,-8.509 -8.411,-7.392M-10.647,-7.392C-11.137,-8.509 -11.527,-10.024 -12.28,-10.985C-13.506,-12.552 -16.057,-11.554 -16.074,-9.596C-16.084,-8.453 -15.091,-7.392 -13.929,-7.392L-10.647,-7.392ZM-13.321,-13.226C-13.117,-13.146 -12.889,-13.133 -12.678,-13.066C-10.863,-12.493 -10.236,-10.31 -9.553,-8.753C-9.451,-8.732 -9.486,-8.794 -9.459,-8.851C-8.921,-9.982 -8.59,-11.266 -7.706,-12.206C-7.174,-12.772 -6.497,-13.088 -5.737,-13.226L-4.619,-13.226C-2.386,-12.827 -0.952,-10.616 -1.679,-8.415L-2.188,-7.392L1.142,-7.392C1.74,-7.392 2.578,-6.557 2.781,-6.016C2.975,-5.497 2.975,-4.016 2.917,-3.43C2.854,-2.796 2.401,-2.223 1.892,-1.878C1.76,-1.789 1.486,-1.73 1.458,-1.583L1.447,9.88C1.247,10.803 0.558,11.478 -0.369,11.662L-18.598,11.668C-19.593,11.534 -20.351,10.779 -20.517,9.794L-20.516,-1.583C-20.544,-1.73 -20.818,-1.789 -20.95,-1.878C-21.488,-2.243 -21.785,-2.685 -21.975,-3.308L-21.975,-5.642C-21.789,-6.206 -21.502,-6.736 -20.988,-7.061C-20.876,-7.132 -20.294,-7.392 -20.2,-7.392L-16.87,-7.392L-17.379,-8.415C-17.965,-10.219 -17.111,-12.167 -15.38,-12.927L-14.439,-13.226L-13.321,-13.226Z" style="fill-rule:nonzero;"/>
            </g>
        </g>
    </g>
</svg>
