<?xml version="1.0" encoding="UTF-8" standalone="no"?>
<!DOCTYPE svg PUBLIC "-//W3C//DTD SVG 1.1//EN" "http://www.w3.org/Graphics/SVG/1.1/DTD/svg11.dtd">
<svg width="100%" height="100%" viewBox="0 0 260 211" version="1.1" xmlns="http://www.w3.org/2000/svg" xmlns:xlink="http://www.w3.org/1999/xlink" xml:space="preserve" xmlns:serif="http://www.serif.com/" style="fill-rule:evenodd;clip-rule:evenodd;stroke-linejoin:round;stroke-miterlimit:2;">
    <g transform="matrix(1,0,0,1,-137679.141216,-60570.248012)">
        <g transform="matrix(8.333333,0,0,8.333333,130221.83455,52649.150512)">
            <g transform="matrix(1,0,0,1,904.3898,965.8007)">
                <path d="M0,-5.294C-0.262,-5.268 -0.509,-5.11 -0.7,-4.938L-7.873,2.241C-7.767,4.456 -8.763,7.944 -5.65,8.366L17.8,8.366C19.404,8.207 20.299,6.749 20.024,5.21L13.582,-1.215C13.222,-1.4 12.747,-1.433 12.416,-1.162L9.482,1.97C9.475,2.011 9.93,2.531 10.003,2.612C10.503,3.174 11.207,3.784 11.643,4.374C11.912,4.74 11.902,5.095 11.584,5.428C10.925,6.119 10.4,5.435 9.941,4.963C6.821,1.759 3.968,-1.732 0.882,-4.97C0.668,-5.191 0.308,-5.324 0,-5.294M20.056,2.92L20.056,-11.463C20.056,-12.534 18.808,-13.674 17.739,-13.661L-5.709,-13.658C-6.728,-13.614 -7.906,-12.49 -7.906,-11.463L-7.906,-0.049L-1.625,-6.295C-0.612,-7.165 0.904,-7.119 1.901,-6.237L8.342,0.751C8.424,0.765 8.612,0.545 8.675,0.478C10.278,-1.212 12.097,-4.347 14.737,-2.37L20.056,2.92ZM-6.064,-15.25L18.048,-15.269C19.979,-15.076 21.499,-13.515 21.667,-11.589L21.667,6.294C21.502,8.234 19.936,9.824 17.986,9.975L-5.897,9.975C-7.798,9.785 -9.325,8.248 -9.513,6.353L-9.513,-11.647C-9.331,-13.483 -7.89,-14.988 -6.064,-15.25" style="fill-rule:nonzero;"/>
            </g>
        </g>
    </g>
</svg>
