<?xml version="1.0" encoding="UTF-8" standalone="no"?>
<!DOCTYPE svg PUBLIC "-//W3C//DTD SVG 1.1//EN" "http://www.w3.org/Graphics/SVG/1.1/DTD/svg11.dtd">
<svg width="100%" height="100%" viewBox="0 0 214 214" version="1.1" xmlns="http://www.w3.org/2000/svg" xmlns:xlink="http://www.w3.org/1999/xlink" xml:space="preserve" xmlns:serif="http://www.serif.com/" style="fill-rule:evenodd;clip-rule:evenodd;stroke-linejoin:round;stroke-miterlimit:2;">
    <g transform="matrix(1,0,0,1,-134414.638716,-60562.603136)">
        <g transform="matrix(8.333333,0,0,8.333333,130221.83455,52649.150512)">
            <g transform="matrix(1,0,0,1,526.7845,965.1952)">
                <path d="M0,-5.649L-21.642,-5.649L-21.642,5.297C-21.642,6.543 -20.387,7.881 -19.157,8.022C-13.607,8.114 -8.035,8.114 -2.485,8.022C-1.21,7.862 0,6.539 0,5.247L0,-5.649ZM-17.734,-11.56L-19.112,-11.56C-20.329,-11.56 -21.642,-9.961 -21.642,-8.78L-21.642,-7.703L0,-7.703L0,-8.78C0,-9.961 -1.312,-11.56 -2.53,-11.56L-3.908,-11.56L-3.908,-9.381C-3.908,-9.355 -4.009,-9.157 -4.036,-9.109C-4.345,-8.548 -5.137,-8.463 -5.608,-8.883C-5.693,-8.959 -5.911,-9.288 -5.911,-9.381L-5.911,-11.56L-15.73,-11.56L-15.73,-9.381C-15.73,-9.288 -15.949,-8.959 -16.034,-8.883C-16.408,-8.549 -16.982,-8.526 -17.381,-8.833C-17.459,-8.893 -17.734,-9.268 -17.734,-9.331L-17.734,-11.56ZM-19.287,10.081C-21.605,9.76 -23.452,7.902 -23.648,5.55L-23.645,-9.18C-23.458,-10.728 -22.573,-12.135 -21.225,-12.922C-20.127,-13.562 -18.991,-13.682 -17.734,-13.614L-17.734,-14.842C-17.734,-14.881 -17.612,-15.082 -17.576,-15.134C-17.18,-15.71 -16.32,-15.73 -15.909,-15.164C-15.88,-15.125 -15.73,-14.86 -15.73,-14.842L-15.73,-13.614L-5.911,-13.614L-5.911,-14.842C-5.911,-14.86 -5.761,-15.125 -5.733,-15.164C-5.326,-15.725 -4.501,-15.715 -4.087,-15.163C-4.046,-15.108 -3.908,-14.887 -3.908,-14.842L-3.908,-13.614C-1.769,-13.817 0.327,-12.993 1.393,-11.075C1.635,-10.639 1.952,-9.795 2.004,-9.306L2.004,5.773C1.871,6.41 1.699,7.007 1.379,7.578C0.782,8.64 -0.307,9.532 -1.481,9.878C-1.768,9.963 -2.068,10 -2.355,10.081L-19.287,10.081Z" style="fill:white;fill-rule:nonzero;"/>
            </g>
        </g>
        <g transform="matrix(8.333333,0,0,8.333333,130221.83455,52649.150512)">
            <g transform="matrix(-0.6318,0.775131,0.775131,0.6318,511.629256,963.07636)">
                <path d="M1.321,-2.591C1.021,-2.346 0.036,-1.104 -0.204,-0.743C-0.833,0.204 0.499,1.323 1.321,0.555C1.588,0.306 2.762,-1.128 2.881,-1.413C3.256,-2.307 2.051,-3.19 1.321,-2.591" style="fill:white;fill-rule:nonzero;"/>
            </g>
        </g>
        <g transform="matrix(8.333333,0,0,8.333333,130221.83455,52649.150512)">
            <g transform="matrix(-0.624312,0.781175,0.781175,0.624312,523.448369,963.098576)">
                <path d="M1.276,-2.615C1.049,-2.425 -0.227,-0.811 -0.328,-0.562C-0.704,0.355 0.562,1.226 1.276,0.573C1.614,0.262 2.448,-0.817 2.718,-1.223C3.388,-2.236 2.044,-3.256 1.276,-2.615" style="fill:white;fill-rule:nonzero;"/>
            </g>
        </g>
        <g transform="matrix(8.333333,0,0,8.333333,130221.83455,52649.150512)">
            <g transform="matrix(-0.6318,0.775131,0.775131,0.6318,511.611837,969.010135)">
                <path d="M1.293,-2.592C0.993,-2.346 0.008,-1.104 -0.232,-0.744C-0.859,0.202 0.47,1.321 1.293,0.554C1.653,0.219 2.434,-0.764 2.721,-1.187C3.405,-2.198 2.077,-3.234 1.293,-2.592" style="fill:white;fill-rule:nonzero;"/>
            </g>
        </g>
        <g transform="matrix(8.333333,0,0,8.333333,130221.83455,52649.150512)">
            <g transform="matrix(-0.6318,0.775131,0.775131,0.6318,517.533374,963.096819)">
                <path d="M1.301,-2.599C1.072,-2.411 -0.22,-0.809 -0.324,-0.562C-0.7,0.334 0.549,1.248 1.301,0.548C1.567,0.3 2.741,-1.137 2.861,-1.42C3.236,-2.314 2.031,-3.197 1.301,-2.599" style="fill:white;fill-rule:nonzero;"/>
            </g>
        </g>
        <g transform="matrix(8.333333,0,0,8.333333,130221.83455,52649.150512)">
            <g transform="matrix(-0.6318,0.775131,0.775131,0.6318,517.511814,969.015561)">
                <path d="M1.281,-2.587C0.982,-2.341 -0.004,-1.099 -0.243,-0.738C-0.877,0.216 0.469,1.317 1.281,0.56C1.642,0.224 2.423,-0.758 2.71,-1.181C3.393,-2.193 2.065,-3.228 1.281,-2.587" style="fill:white;fill-rule:nonzero;"/>
            </g>
        </g>
        <g transform="matrix(8.333333,0,0,8.333333,130221.83455,52649.150512)">
            <g transform="matrix(-0.6318,0.775131,0.775131,0.6318,523.448587,969.024556)">
                <path d="M1.29,-2.612C1.073,-2.433 -0.213,-0.852 -0.324,-0.612C-0.748,0.3 0.517,1.257 1.29,0.535C1.652,0.196 2.431,-0.782 2.719,-1.207C3.394,-2.206 2.068,-3.25 1.29,-2.612" style="fill:white;fill-rule:nonzero;"/>
            </g>
        </g>
    </g>
</svg>
