<?xml version="1.0" encoding="UTF-8" standalone="no"?>
<!DOCTYPE svg PUBLIC "-//W3C//DTD SVG 1.1//EN" "http://www.w3.org/Graphics/SVG/1.1/DTD/svg11.dtd">
<svg width="100%" height="100%" viewBox="0 0 258 254" version="1.1" xmlns="http://www.w3.org/2000/svg" xmlns:xlink="http://www.w3.org/1999/xlink" xml:space="preserve" xmlns:serif="http://www.serif.com/" style="fill-rule:evenodd;clip-rule:evenodd;stroke-linejoin:round;stroke-miterlimit:2;">
    <g transform="matrix(1,0,0,1,-132063.654865,-69077.531302)">
        <g transform="matrix(8.333333,0,0,8.333333,130221.83455,52649.150512)">
            <g transform="matrix(1,0,0,1,224.8284,1980.679)">
                <path d="M0,16.824C-1.892,16.612 -3.584,14.731 -3.716,12.856C-4.015,8.59 -3.484,3.98 -3.715,-0.322C-3.449,-2.547 -1.716,-4.155 0.513,-4.294C4.299,-4.53 8.329,-4.111 12.14,-4.291C13.336,-4.161 13.372,-2.597 12.204,-2.418L0.341,-2.4C-1.007,-2.201 -1.887,-1.084 -1.908,0.259C-1.717,4.199 -2.151,8.361 -1.908,12.275C-1.664,16.197 2.603,14.707 5.167,15.014C5.457,15.049 5.683,15.213 5.805,15.475C6.129,16.174 5.73,18.082 5.84,18.991C5.896,19.454 6.265,19.226 6.51,19.072C8.351,17.909 10.034,16.198 11.912,15.046C14.015,14.881 16.249,15.163 18.338,15.015C19.815,14.911 20.79,14.153 21.018,12.659L21.047,4.681C21.337,3.647 22.741,3.804 22.885,4.852C22.764,7.381 23.066,10.089 22.893,12.597C22.749,14.698 21.144,16.63 18.983,16.823C16.926,17.006 14.637,16.664 12.555,16.853C10.846,18.007 9.227,19.539 7.505,20.648C6.658,21.193 5.903,21.354 4.984,20.816C3.546,19.974 4.036,18.204 4.036,16.824L0,16.824Z" style="fill-rule:nonzero;"/>
            </g>
        </g>
        <g transform="matrix(8.333333,0,0,8.333333,130221.83455,52649.150512)">
            <g transform="matrix(1,0,0,1,249.7853,1978.9193)">
                <path d="M0,-2.466C-0.706,-2.7 -1.577,-2.763 -2.261,-3.014C-3.102,-3.322 -3.485,-4.741 -4.1,-5.371C-4.235,-5.367 -5.212,-3.412 -5.621,-3.148C-5.939,-2.942 -8.14,-2.565 -8.137,-2.434C-7.765,-1.875 -7.245,-1.417 -6.846,-0.883C-6.491,-0.407 -6.436,-0.348 -6.455,0.28C-6.475,0.943 -6.637,1.64 -6.586,2.311C-6.498,2.411 -4.507,1.402 -4.1,1.402C-3.437,1.403 -2.289,2.196 -1.583,2.312L-1.749,0.019C-1.776,-0.369 -1.508,-0.662 -1.29,-0.947C-0.899,-1.459 -0.386,-1.941 0,-2.466M-4.408,-7.488C-2.696,-7.759 -2.327,-5.813 -1.482,-4.762C-0.124,-4.237 2.354,-4.431 2.061,-2.311C1.953,-1.529 0.554,-0.433 0.145,0.285L0.325,2.47C0.437,3.73 -0.49,4.623 -1.744,4.281C-2.513,4.072 -3.309,3.552 -4.1,3.354C-5.361,3.711 -7.453,5.293 -8.342,3.518C-8.769,2.665 -8.27,1.197 -8.357,0.243C-9.076,-0.857 -11.073,-2.121 -9.942,-3.595C-9.317,-4.41 -7.631,-4.362 -6.72,-4.763C-6.027,-5.556 -5.552,-7.306 -4.408,-7.488" style="fill-rule:nonzero;"/>
            </g>
        </g>
        <g transform="matrix(8.333333,0,0,8.333333,130221.83455,52649.150512)">
            <g transform="matrix(0.999999,-0.001617,-0.001617,-0.999999,229.297318,1983.708142)">
                <path d="M0.001,0.009L10.514,0.009C11.656,-0.164 11.579,-1.746 10.444,-1.866L0.177,-1.85C-0.925,-1.703 -1.092,-0.31 0.001,0.009" style="fill-rule:nonzero;"/>
            </g>
        </g>
        <g transform="matrix(8.333333,0,0,8.333333,130221.83455,52649.150512)">
            <g transform="matrix(0.999999,-0.001537,-0.001537,-0.999999,229.561335,1989.234046)">
                <path d="M0.001,0.005L5.856,0.005C6.827,-0.237 6.853,-1.463 5.921,-1.795L0.053,-1.785C-0.906,-1.524 -0.94,-0.312 0.001,0.005" style="fill-rule:nonzero;"/>
            </g>
        </g>
    </g>
</svg>
