<?xml version="1.0" encoding="UTF-8" standalone="no"?>
<!DOCTYPE svg PUBLIC "-//W3C//DTD SVG 1.1//EN" "http://www.w3.org/Graphics/SVG/1.1/DTD/svg11.dtd">
<svg width="100%" height="100%" viewBox="0 0 146 163" version="1.1" xmlns="http://www.w3.org/2000/svg" xmlns:xlink="http://www.w3.org/1999/xlink" xml:space="preserve" xmlns:serif="http://www.serif.com/" style="fill-rule:evenodd;clip-rule:evenodd;stroke-linejoin:round;stroke-miterlimit:2;">
    <g transform="matrix(1,0,0,1,-117637.090244,-67926.668065)">
        <g transform="matrix(8.333333,0,0,8.333333,108763.692744,53287.214731)">
            <g transform="matrix(1,0,0,1,1073.0227,1774.7574)">
                <path d="M0,-18.023L0,-8.588L2.032,-9.019L2.036,-15.26C2.574,-15.912 3.257,-16.534 4.001,-16.944C4.032,-16.961 4.067,-16.987 4.102,-16.989L4.102,-9.459L9.226,-10.54L9.226,-10.493L9.153,-9.98C9.045,-9.405 8.875,-8.841 8.63,-8.312L4.122,-7.353L4.102,-7.338L4.102,-5.264L9.226,-6.345L9.226,-6.298L9.141,-5.727C9.034,-5.172 8.865,-4.63 8.631,-4.116L2.033,-2.714L2.033,-6.903L0.005,-6.473L0,-3.833C-0.456,-3.24 -0.834,-2.513 -1.297,-1.919C-1.56,-1.58 -1.938,-1.332 -2.359,-1.238L-8.215,0L-8.215,-0.105C-8.18,-0.184 -8.18,-0.288 -8.167,-0.376C-8.068,-1.016 -7.88,-1.638 -7.62,-2.229L-2.068,-3.405L-2.068,-6.031L-7.223,-4.939L-7.248,-4.956C-7.165,-5.721 -6.964,-6.47 -6.651,-7.171L-2.069,-8.147L-2.066,-16.283C-1.506,-16.992 -0.792,-17.57 -0.012,-18.023L0,-18.023Z" style="fill-rule:nonzero;"/>
            </g>
        </g>
        <g transform="matrix(8.333333,0,0,8.333333,108763.692744,53287.214731)">
            <g transform="matrix(1,0,0,1,1082.2488,1776.2209)">
                <path d="M0,-3.625L0,-3.579L-0.085,-2.995C-0.196,-2.444 -0.358,-1.902 -0.595,-1.391L-7.111,0L-7.181,0C-7.117,-0.768 -6.904,-1.524 -6.588,-2.225L0,-3.625Z" style="fill-rule:nonzero;"/>
            </g>
        </g>
    </g>
</svg>
