<?xml version="1.0" encoding="UTF-8" standalone="no"?>
<!DOCTYPE svg PUBLIC "-//W3C//DTD SVG 1.1//EN" "http://www.w3.org/Graphics/SVG/1.1/DTD/svg11.dtd">
<svg width="100%" height="100%" viewBox="0 0 394 525" version="1.1" xmlns="http://www.w3.org/2000/svg" xmlns:xlink="http://www.w3.org/1999/xlink" xml:space="preserve" xmlns:serif="http://www.serif.com/" style="fill-rule:evenodd;clip-rule:evenodd;stroke-linejoin:round;stroke-miterlimit:2;">
    <g transform="matrix(1,0,0,1,-121214.940868,-70375.025537)">
        <g transform="matrix(8.333333,0,0,8.333333,108763.692744,53287.214731)">
            <g transform="matrix(1,0,0,1,1530.6118,2071.9633)">
                <path d="M0,-18.771C-10.386,-18.339 -9.685,-2.177 1.188,-3.098C10.958,-3.924 10.198,-19.195 0,-18.771M1.496,-21.384C7.498,-20.777 11.729,-14.844 10.647,-8.981C8.963,0.147 -3.096,2.67 -8.3,-5.021C-12.715,-11.546 -8.535,-20.623 -0.713,-21.384C-0.146,-21.439 0.931,-21.441 1.496,-21.384" style="fill:rgb(255,108,0);fill-rule:nonzero;"/>
            </g>
        </g>
        <g transform="matrix(8.333333,0,0,8.333333,108763.692744,53287.214731)">
            <g transform="matrix(1,0,0,1,1505.9426,2061.1176)">
                <path d="M0,-7.932C-5.26,-7.729 -4.865,0.51 0.698,-0.105C5.443,-0.629 4.977,-8.124 0,-7.932M1.004,-10.538C8.89,-9.594 8.265,2.655 0.089,2.6C-7.955,2.545 -8.575,-9.597 -0.715,-10.538C-0.31,-10.587 0.6,-10.587 1.004,-10.538" style="fill:rgb(255,108,0);fill-rule:nonzero;"/>
            </g>
        </g>
        <g transform="matrix(8.333333,0,0,8.333333,108763.692744,53287.214731)">
            <g transform="matrix(1,0,0,1,1504.0437,2087.7707)">
                <path d="M0,2.779C3.068,5.887 8.336,4.264 12.291,4.665C13.315,4.769 13.741,5.156 13.832,6.193C14.263,11.119 13.489,16.66 13.838,21.652C14.091,23.516 16.476,23.431 16.76,21.651L19.091,3.239C19.098,1.577 17.791,-0.248 16.087,-0.481C13.055,-0.896 8.11,0.352 5.563,-1.496C4.498,-2.268 3.526,-3.772 3.395,-5.096C3.053,-8.545 3.673,-12.533 3.398,-16.023C3.094,-19.876 -1.605,-19.58 -1.889,-16.392C-1.562,-11.516 -2.311,-6.104 -1.882,-1.292C-1.759,0.093 -0.972,1.795 0,2.779M-1.884,4.663L-2.966,3.228C-3.657,2.21 -4.324,0.537 -4.447,-0.691C-4.963,-5.842 -4.091,-11.769 -4.463,-17.001C-3.281,-23.2 5.493,-22.831 5.976,-16.392C6.235,-12.937 5.631,-8.991 5.973,-5.587C6.095,-4.363 6.998,-3.332 8.242,-3.192C13.526,-2.597 20.459,-5.081 21.68,2.64C21.099,8.188 20.474,13.778 19.701,19.313C19.347,21.849 19.422,24.534 16.5,25.441C14.798,25.969 12.881,25.355 11.883,23.852C11.767,23.676 11.249,22.519 11.249,22.399L11.249,7.364L0.693,7.364L0.693,22.89C0.693,22.903 0.864,23.074 0.877,23.074L5.051,23.074C5.171,23.074 5.692,23.551 5.776,23.698C6.341,24.686 5.583,25.56 4.566,25.658C1.257,25.979 -2.601,25.43 -5.967,25.623C-6.93,25.486 -7.381,24.475 -6.9,23.643C-6.814,23.494 -6.365,23.074 -6.242,23.074L-1.884,23.074L-1.884,7.364L-4.646,7.364C-7.49,7.364 -9.572,4.813 -9.745,2.153C-10.219,-5.109 -9.377,-12.88 -9.743,-20.195C-9.548,-21.81 -7.46,-21.916 -7.159,-20.317L-7.16,1.9C-7.288,2.864 -6.126,4.663 -5.137,4.663L-1.884,4.663Z" style="fill:rgb(255,108,0);fill-rule:nonzero;"/>
            </g>
        </g>
    </g>
</svg>
