<?xml version="1.0" encoding="UTF-8" standalone="no"?>
<!DOCTYPE svg PUBLIC "-//W3C//DTD SVG 1.1//EN" "http://www.w3.org/Graphics/SVG/1.1/DTD/svg11.dtd">
<svg width="100%" height="100%" viewBox="0 0 405 405" version="1.1" xmlns="http://www.w3.org/2000/svg" xmlns:xlink="http://www.w3.org/1999/xlink" xml:space="preserve" xmlns:serif="http://www.serif.com/" style="fill-rule:evenodd;clip-rule:evenodd;stroke-linejoin:round;stroke-miterlimit:2;">
    <g transform="matrix(1,0,0,1,-141174.06455,-67705.900512)">
        <g transform="matrix(8.333333,0,0,8.333333,130221.83455,52649.150512)">
            <g transform="matrix(1,0,0,1,1338.1176,1835.8464)">
                <path d="M0,-9.612C-3.751,-9.286 -5.687,-4.971 -3.425,-1.931C-1.435,0.745 2.639,0.545 4.437,-2.235C6.595,-5.568 3.926,-9.953 0,-9.612M9.808,-12.055C9.423,-10.668 7.488,-10.346 6.684,-11.528C5.931,-12.641 6.628,-14.171 7.959,-14.301C9.197,-14.42 10.138,-13.248 9.808,-12.055M6.965,-1.29C4.374,3.551 -2.517,3.981 -5.683,-0.519C-9.03,-5.282 -5.883,-11.855 -0.115,-12.266C5.712,-12.685 9.727,-6.45 6.965,-1.29M12.148,-10.164C12.073,-11.769 11.999,-13.289 10.939,-14.598C9.386,-16.507 7.321,-16.492 5.064,-16.574C2.065,-16.681 -1.005,-16.707 -4.011,-16.614C-5.879,-16.555 -7.944,-16.529 -9.445,-15.272C-11.188,-13.819 -11.254,-11.932 -11.339,-9.827C-11.477,-6.561 -11.477,-3.04 -11.339,0.226C-11.143,4.897 -9.86,6.676 -5.041,6.914C-1.601,7.084 2.013,7.095 5.46,6.973C10.209,6.81 11.921,5.26 12.148,0.504C12.311,-2.917 12.311,-6.743 12.148,-10.164" style="fill-rule:nonzero;"/>
            </g>
        </g>
        <g transform="matrix(8.333333,0,0,8.333333,130221.83455,52649.150512)">
            <g transform="matrix(1,0,0,1,1352.8636,1824.34)">
                <path d="M0,13.423C-0.541,19.002 -4.211,20.967 -9.397,21.133C-12.707,21.245 -16.37,21.215 -19.673,21.074C-22.004,20.974 -24.058,20.737 -25.911,19.18C-29.429,16.214 -28.743,11.462 -28.795,7.325C-28.795,7.229 -28.758,7.073 -28.851,7.017C-28.851,6.791 -28.855,6.562 -28.851,6.339C-28.818,3.121 -29.155,-1.36 -27.387,-4.137C-25.581,-6.965 -22.642,-7.662 -19.48,-7.777L-9.26,-7.777L-7.036,-7.603C-2.587,-6.969 -0.156,-3.855 0.059,0.549C-0.182,4.727 0.404,9.293 0,13.423M-14.357,-17.53C-27.743,-17.53 -38.596,-6.676 -38.596,6.71C-38.596,20.099 -27.743,30.953 -14.357,30.953C-0.968,30.953 9.886,20.099 9.886,6.71C9.886,-6.676 -0.968,-17.53 -14.357,-17.53" style="fill-rule:nonzero;"/>
            </g>
        </g>
    </g>
</svg>
