<?xml version="1.0" encoding="UTF-8" standalone="no"?>
<!DOCTYPE svg PUBLIC "-//W3C//DTD SVG 1.1//EN" "http://www.w3.org/Graphics/SVG/1.1/DTD/svg11.dtd">
<svg width="100%" height="100%" viewBox="0 0 405 405" version="1.1" xmlns="http://www.w3.org/2000/svg" xmlns:xlink="http://www.w3.org/1999/xlink" xml:space="preserve" xmlns:serif="http://www.serif.com/" style="fill-rule:evenodd;clip-rule:evenodd;stroke-linejoin:round;stroke-miterlimit:2;">
    <g transform="matrix(1,0,0,1,-142674.450383,-67706.274679)">
        <g transform="matrix(8.333333,0,0,8.333333,130221.83455,52649.150512)">
            <g transform="matrix(1,0,0,1,1523.6879,1817.9649)">
                <path d="M0,26.263L-6.95,16.106L-15.643,26.263L-18.005,26.263L-7.999,14.594L-18.005,0.003L-10.257,0.003C-8.14,3.239 -5.875,6.383 -3.718,9.593L-3.566,9.489L4.589,0.003L6.873,0.003L-2.654,11.106L7.744,26.263L0,26.263ZM-5.13,-11.11C-18.52,-11.11 -29.374,-0.256 -29.374,13.133C-29.374,26.519 -18.52,37.373 -5.13,37.373C8.259,37.373 19.113,26.519 19.113,13.133C19.113,-0.256 8.259,-11.11 -5.13,-11.11" style="fill-rule:nonzero;"/>
            </g>
        </g>
    </g>
</svg>
