<?xml version="1.0" encoding="UTF-8" standalone="no"?>
<!DOCTYPE svg PUBLIC "-//W3C//DTD SVG 1.1//EN" "http://www.w3.org/Graphics/SVG/1.1/DTD/svg11.dtd">
<svg width="100%" height="100%" viewBox="0 0 405 405" version="1.1" xmlns="http://www.w3.org/2000/svg" xmlns:xlink="http://www.w3.org/1999/xlink" xml:space="preserve" xmlns:serif="http://www.serif.com/" style="fill-rule:evenodd;clip-rule:evenodd;stroke-linejoin:round;stroke-miterlimit:2;">
    <g transform="matrix(1,0,0,1,-142174.312883,-67705.382179)">
        <g transform="matrix(8.333333,0,0,8.333333,130221.83455,52649.150512)">
            <g transform="matrix(1,0,0,1,1471.2294,1833.4708)">
                <path d="M0,-4.96C-2.628,-4.96 -5.164,-5.839 -7.266,-7.384L-7.266,3.462C-7.721,11.402 -17.715,14.905 -23.068,8.952C-28.521,2.888 -23.632,-6.48 -15.576,-5.916C-15.458,-5.909 -14.928,-5.85 -14.928,-5.779L-14.928,-1.02C-18.405,-2.15 -21.667,1.312 -20.177,4.708C-18.42,8.715 -12.366,7.681 -12.051,3.292L-12.055,-16.904L-7.325,-16.904C-7.258,-16.396 -7.243,-15.933 -7.136,-15.428C-6.446,-12.103 -3.403,-9.653 0,-9.694L0,-4.96ZM-12.689,-26.723C-26.078,-26.723 -36.932,-15.87 -36.932,-2.48C-36.932,10.909 -26.078,21.763 -12.689,21.763C0.701,21.763 11.554,10.909 11.554,-2.48C11.554,-15.87 0.701,-26.723 -12.689,-26.723" style="fill-rule:nonzero;"/>
            </g>
        </g>
    </g>
</svg>
