<?xml version="1.0" encoding="UTF-8" standalone="no"?>
<!DOCTYPE svg PUBLIC "-//W3C//DTD SVG 1.1//EN" "http://www.w3.org/Graphics/SVG/1.1/DTD/svg11.dtd">
<svg width="100%" height="100%" viewBox="0 0 405 405" version="1.1" xmlns="http://www.w3.org/2000/svg" xmlns:xlink="http://www.w3.org/1999/xlink" xml:space="preserve" xmlns:serif="http://www.serif.com/" style="fill-rule:evenodd;clip-rule:evenodd;stroke-linejoin:round;stroke-miterlimit:2;">
    <g transform="matrix(1,0,0,1,-141674.171216,-67705.233012)">
        <g transform="matrix(8.333333,0,0,8.333333,130221.83455,52649.150512)">
            <g transform="matrix(1,0,0,1,1406.0154,1840.6039)">
                <path d="M0,-19.265C-0.864,-19.232 -1.761,-19.313 -2.621,-19.269C-3.618,-19.217 -4.671,-19.109 -5.056,-18.042C-5.104,-17.908 -5.238,-17.434 -5.238,-17.323L-5.238,-13.519L-0.167,-13.519L-0.871,-8.337L-5.238,-8.337L-5.238,4.789L-10.591,4.789L-10.591,-8.337L-14.983,-8.337L-14.983,-13.519L-10.591,-13.519C-10.52,-16.44 -11.065,-19.84 -8.9,-22.167C-7.925,-23.22 -6.272,-23.943 -4.845,-24.054L-1.891,-23.995C-1.26,-23.965 -0.63,-23.943 0,-23.884L0,-19.265ZM-7.492,-33.874C-20.881,-33.874 -31.735,-23.02 -31.735,-9.631C-31.735,3.755 -20.881,14.609 -7.492,14.609C5.898,14.609 16.752,3.755 16.752,-9.631C16.752,-23.02 5.898,-33.874 -7.492,-33.874" style="fill-rule:nonzero;"/>
            </g>
        </g>
    </g>
</svg>
