<?xml version="1.0" encoding="UTF-8" standalone="no"?>
<!DOCTYPE svg PUBLIC "-//W3C//DTD SVG 1.1//EN" "http://www.w3.org/Graphics/SVG/1.1/DTD/svg11.dtd">
<svg width="100%" height="100%" viewBox="0 0 330 330" version="1.1" xmlns="http://www.w3.org/2000/svg" xmlns:xlink="http://www.w3.org/1999/xlink" xml:space="preserve" xmlns:serif="http://www.serif.com/" style="fill-rule:evenodd;clip-rule:evenodd;stroke-linejoin:round;stroke-miterlimit:2;">
    <g transform="matrix(1,0,0,1,-121217.601999,-67522.386398)">
        <g transform="matrix(8.333333,0,0,8.333333,108763.692744,53287.214731)">
            <g transform="matrix(1,0,0,1,1514.2721,1711.7556)">
                <path d="M0,32.875C9.165,32.878 16.646,25.425 16.66,16.276C16.675,7.069 9.215,-0.419 0.023,-0.423C-9.16,-0.426 -16.634,7.037 -16.637,16.215C-16.641,25.398 -9.177,32.871 0,32.875M-1.609,-3.535L1.633,-3.535C2.254,-3.444 2.883,-3.386 3.496,-3.257C11.37,-1.601 16.535,3.077 19.028,10.715C19.44,11.978 19.609,13.292 19.773,14.605L19.773,17.847C19.732,18.139 19.69,18.431 19.651,18.724C19.057,23.276 17.135,27.19 13.84,30.371C9.5,34.56 4.278,36.41 -1.746,35.941C-4.506,35.726 -7.093,34.918 -9.512,33.584C-16.833,29.547 -21.107,21.266 -19.446,12.728C-17.915,4.856 -13.148,-0.28 -5.539,-2.78C-4.264,-3.199 -2.936,-3.371 -1.609,-3.535" style="fill:rgb(255,108,0);fill-rule:nonzero;"/>
            </g>
        </g>
        <g transform="matrix(8.333333,0,0,8.333333,108763.692744,53287.214731)">
            <g transform="matrix(1,0,0,1,1515.8555,1728.7484)">
                <path d="M0,-5.812C0,-4.5 0.009,-3.188 -0.007,-1.876C-0.01,-1.558 0.098,-1.355 0.35,-1.168C2.023,0.074 3.685,1.33 5.353,2.579C5.797,2.911 6.095,3.313 6.107,3.897C6.119,4.541 5.841,5.018 5.292,5.323C4.751,5.622 4.197,5.588 3.682,5.25C3.328,5.017 2.997,4.75 2.657,4.496C1.011,3.261 -0.628,2.016 -2.285,0.797C-2.887,0.354 -3.157,-0.189 -3.152,-0.942C-3.131,-3.874 -3.146,-6.806 -3.141,-9.739C-3.14,-10.659 -2.538,-11.328 -1.692,-11.378C-0.747,-11.434 -0.015,-10.775 -0.005,-9.825C0.009,-8.487 -0.002,-7.15 -0.002,-5.812L0,-5.812Z" style="fill:rgb(255,108,0);fill-rule:nonzero;"/>
            </g>
        </g>
    </g>
</svg>
